HIERARCHY
ROOT hip
{
  OFFSET 0 0 0
  CHANNELS 6 Xposition Yposition Zposition Zrotation Yrotation Xrotation
  JOINT abdomen
  {
    OFFSET 0 20.6881 -0.73152
    CHANNELS 3 Zrotation Xrotation Yrotation
    JOINT chest
    {
      OFFSET 0 11.7043 -0.48768
      CHANNELS 3 Zrotation Xrotation Yrotation
      JOINT neck
      {
        OFFSET 0 22.1894 -2.19456
        CHANNELS 3 Zrotation Xrotation Yrotation
        JOINT head
        {
          OFFSET -0.24384 7.07133 1.2192
          CHANNELS 3 Zrotation Xrotation Yrotation
          JOINT leftEye
          {
            OFFSET 4.14528 8.04674 8.04672
            CHANNELS 3 Zrotation Xrotation Yrotation
            End Site
            {
              OFFSET 1 0 0
            }
          }
          JOINT rightEye
          {
            OFFSET -3.6576 8.04674 8.04672
            CHANNELS 3 Zrotation Xrotation Yrotation
            End Site
            {
              OFFSET 1 0 0
            }
          }
        }
      }
      JOINT rCollar
      {
        OFFSET -2.68224 19.2634 -4.8768
        CHANNELS 3 Zrotation Xrotation Yrotation
        JOINT rShldr
        {
          OFFSET -8.77824 -1.95073 1.46304
          CHANNELS 3 Zrotation Xrotation Yrotation
          JOINT rForeArm
          {
            OFFSET -28.1742 -1.7115 0.48768
            CHANNELS 3 Zrotation Xrotation Yrotation
            JOINT rHand
            {
              OFFSET -22.5879 0.773209 7.07136
              CHANNELS 3 Zrotation Xrotation Yrotation
              JOINT rThumb1
              {
                OFFSET -1.2192 -0.487915 3.41376
                CHANNELS 3 Zrotation Xrotation Yrotation
                JOINT rThumb2
                {
                  OFFSET -3.37035 -0.52449 3.41376
                  CHANNELS 3 Zrotation Xrotation Yrotation
                  End Site
                  {
                    OFFSET -1.78271 -1.18214 1.43049
                  }
                }
              }
              JOINT rIndex1
              {
                OFFSET -7.75947 0.938293 5.60832
                CHANNELS 3 Zrotation Xrotation Yrotation
                JOINT rIndex2
                {
                  OFFSET -2.54057 -0.884171 1.56538
                  CHANNELS 3 Zrotation Xrotation Yrotation
                  End Site
                  {
                    OFFSET -1.62519 -0.234802 1.16502
                  }
                }
              }
              JOINT rMid1
              {
                OFFSET -8.24714 1.18213 3.41376
                CHANNELS 3 Zrotation Xrotation Yrotation
                JOINT rMid2
                {
                  OFFSET -3.10165 -0.590103 1.0647
                  CHANNELS 3 Zrotation Xrotation Yrotation
                  End Site
                  {
                    OFFSET -2.48547 -0.328903 0.83742
                  }
                }
              }
              JOINT rRing1
              {
                OFFSET -8.82822 0.546677 1.51678
                CHANNELS 3 Zrotation Xrotation Yrotation
                JOINT rRing2
                {
                  OFFSET -2.60934 -0.819778 -0.0198488
                  CHANNELS 3 Zrotation Xrotation Yrotation
                  End Site
                  {
                    OFFSET -2.33842 -0.294052 0.168128
                  }
                }
              }
              JOINT rPinky1
              {
                OFFSET -8.27202 -0.0477905 -0.4584
                CHANNELS 3 Zrotation Xrotation Yrotation
                JOINT rPinky2
                {
                  OFFSET -1.82734 -0.647385 -0.700984
                  CHANNELS 3 Zrotation Xrotation Yrotation
                  End Site
                  {
                    OFFSET -1.69225 -0.51767 -0.607171
                  }
                }
              }
            }
          }
        }
      }
      JOINT lCollar
      {
        OFFSET 2.68224 19.2634 -4.8768
        CHANNELS 3 Zrotation Xrotation Yrotation
        JOINT lShldr
        {
          OFFSET 8.77824 -1.95073 1.46304
          CHANNELS 3 Zrotation Xrotation Yrotation
          JOINT lForeArm
          {
            OFFSET 28.1742 -1.7115 0.48768
            CHANNELS 3 Zrotation Xrotation Yrotation
            JOINT lHand
            {
              OFFSET 22.5879 0.773209 7.07136
              CHANNELS 3 Zrotation Xrotation Yrotation
              JOINT lThumb1
              {
                OFFSET 1.2192 -0.487915 3.41376
                CHANNELS 3 Zrotation Xrotation Yrotation
                JOINT lThumb2
                {
                  OFFSET 3.37035 -0.52449 3.41376
                  CHANNELS 3 Zrotation Xrotation Yrotation
                  End Site
                  {
                    OFFSET 1.78271 -1.18214 1.43049
                  }
                }
              }
              JOINT lIndex1
              {
                OFFSET 7.75947 0.938293 5.60832
                CHANNELS 3 Zrotation Xrotation Yrotation
                JOINT lIndex2
                {
                  OFFSET 2.54057 -0.884171 1.56538
                  CHANNELS 3 Zrotation Xrotation Yrotation
                  End Site
                  {
                    OFFSET 1.62519 -0.234802 1.16502
                  }
                }
              }
              JOINT lMid1
              {
                OFFSET 8.24714 1.18213 3.41376
                CHANNELS 3 Zrotation Xrotation Yrotation
                JOINT lMid2
                {
                  OFFSET 3.10165 -0.590103 1.0647
                  CHANNELS 3 Zrotation Xrotation Yrotation
                  End Site
                  {
                    OFFSET 2.48547 -0.328903 0.83742
                  }
                }
              }
              JOINT lRing1
              {
                OFFSET 8.82822 0.546677 1.51678
                CHANNELS 3 Zrotation Xrotation Yrotation
                JOINT lRing2
                {
                  OFFSET 2.60934 -0.819778 -0.0198488
                  CHANNELS 3 Zrotation Xrotation Yrotation
                  End Site
                  {
                    OFFSET 2.33842 -0.294052 0.168128
                  }
                }
              }
              JOINT lPinky1
              {
                OFFSET 8.27202 -0.0477905 -0.4584
                CHANNELS 3 Zrotation Xrotation Yrotation
                JOINT lPinky2
                {
                  OFFSET 1.82734 -0.647385 -0.700984
                  CHANNELS 3 Zrotation Xrotation Yrotation
                  End Site
                  {
                    OFFSET 1.69225 -0.51767 -0.607171
                  }
                }
              }
            }
          }
        }
      }
    }
  }
  JOINT rButtock
  {
    OFFSET -8.77824 4.35084 1.2192
    CHANNELS 3 Zrotation Xrotation Yrotation
    JOINT rThigh
    {
      OFFSET 0 -1.70687 -2.19456
      CHANNELS 3 Zrotation Xrotation Yrotation
      JOINT rShin
      {
        OFFSET 0 -36.8199 0.73152
        CHANNELS 3 Zrotation Xrotation Yrotation
        JOINT rFoot
        {
          OFFSET 0.73152 -45.1104 -5.12064
          CHANNELS 3 Zrotation Xrotation Yrotation
          End Site
          {
            OFFSET -1.1221 -3.69964 12.103
          }
        }
      }
    }
  }
  JOINT lButtock
  {
    OFFSET 8.77824 4.35084 1.2192
    CHANNELS 3 Zrotation Xrotation Yrotation
    JOINT lThigh
    {
      OFFSET 0 -1.70687 -2.19456
      CHANNELS 3 Zrotation Xrotation Yrotation
      JOINT lShin
      {
        OFFSET 0 -36.8199 0.73152
        CHANNELS 3 Zrotation Xrotation Yrotation
        JOINT lFoot
        {
          OFFSET -0.73152 -45.1104 -5.12064
          CHANNELS 3 Zrotation Xrotation Yrotation
          End Site
          {
            OFFSET 1.1221 -3.69964 12.103
          }
        }
      }
    }
  }
}
MOTION
Frames:	6
Frame Time:	0.00833333
-20.9513 67.6253 -0.0512151 134.211 77.334 145.432 -13.746 60.7616 8.79527 3.07062 -13.2862 1.7731 -9.40851 -15.7455 -5.6979 8.21049 -3.55477 -5.97835 -0.0 0.0 0.0 -0.0 0.0 0.0 3.30386e-13 1.41793e-12 -1.88347e-13 47.1531 14.5305 48.3716 -22.9537 -17.2591 46.4553 -0.256017 -14.2588 -2.04679 1.62575e-09 -2.17963e-10 2.0947e-11 2.81168e-09 -3.72628e-10 5.08085e-11 1.62575e-09 -2.17964e-10 2.09496e-11 7.73091 5.47488 0.417314 1.62575e-09 -2.17964e-10 2.09479e-11 2.90554 0.965183 0.102902 1.62576e-09 -2.17963e-10 2.09413e-11 10.2786 0.731801 0.0259123 1.62575e-09 -2.17965e-10 2.09477e-11 2.22167 -0.733487 -0.20892 3.30208e-13 1.41792e-12 -1.88528e-13 -23.879 20.2075 -50.2839 22.5684 -16.6354 -45.3544 0.754338 -23.877 3.56675 6.14882e-10 9.43139e-10 2.23165e-09 1.01374e-09 1.64815e-09 3.87613e-09 6.14882e-10 9.43144e-10 2.23165e-09 -7.73091 5.47488 -0.417314 6.14882e-10 9.43146e-10 2.23165e-09 -2.90554 0.965183 -0.102902 6.14877e-10 9.43147e-10 2.23165e-09 -10.2786 0.731801 -0.0259123 6.14883e-10 9.43148e-10 2.23165e-09 -2.22167 -0.733487 0.20892 -2.03217e-16 0.0 -3.88251e-19 -40.3385 -52.7364 -31.7341 -2.92409 76.3203 4.45288 -3.66267 -21.7432 -9.48331 2.03217e-16 0.0 3.88251e-19 36.0953 -53.1948 43.9339 1.07911 62.4036 -2.17996 6.70774 -7.82883 25.8795
-21.0165 67.6432 0.412309 133.407 77.1287 144.637 -13.608 60.4917 8.61603 3.12072 -13.1936 1.75718 -9.39549 -15.9237 -5.65603 8.11668 -2.8529 -5.92916 -0.0 0.0 0.0 -0.0 0.0 0.0 1.1593e-13 -1.25842e-14 -1.60199e-13 47.2267 14.5977 48.2948 -22.9698 -17.2858 46.5013 -0.250881 -14.1198 -2.02599 2.05556e-09 -3.5491e-10 -3.69642e-10 3.55649e-09 -6.08128e-10 -6.22037e-10 2.05556e-09 -3.5491e-10 -3.6964e-10 7.73091 5.47488 0.417314 2.05556e-09 -3.54911e-10 -3.6964e-10 2.90554 0.965183 0.102902 2.05557e-09 -3.5491e-10 -3.69647e-10 10.2786 0.731801 0.0259123 2.05556e-09 -3.5491e-10 -3.69641e-10 2.22167 -0.733487 -0.20892 1.15835e-13 -1.25876e-14 -1.60357e-13 -23.9966 20.3566 -50.2292 22.6062 -16.6956 -45.4603 0.761974 -23.9889 3.58561 1.77723e-10 7.31743e-10 1.65743e-09 2.72353e-10 1.27768e-09 2.87571e-09 1.77723e-10 7.3175e-10 1.65743e-09 -7.73091 5.47488 -0.417314 1.77725e-10 7.31751e-10 1.65743e-09 -2.90554 0.965183 -0.102902 1.77717e-10 7.31752e-10 1.65743e-09 -10.2786 0.731801 -0.0259123 1.77726e-10 7.31753e-10 1.65742e-09 -2.22167 -0.733487 0.20892 -2.03217e-16 0.0 -3.88251e-19 -40.2275 -53.0085 -31.8248 -2.97009 76.4701 4.49326 -3.69061 -21.9428 -9.47494 2.03217e-16 0.0 3.88251e-19 35.9931 -52.9984 43.761 1.04529 61.8576 -2.12675 6.52653 -7.53193 25.7976
-21.0975 67.6339 0.906978 132.77 77.0686 144.092 -13.4888 60.2168 8.44892 3.16718 -13.1015 1.74029 -9.38754 -16.1101 -5.61894 8.00716 -2.07643 -5.88773 -0.0 0.0 0.0 -0.0 0.0 0.0 -1.09558e-13 -1.54425e-12 -1.36968e-13 47.2946 14.6913 48.1847 -23.0044 -17.3437 46.5997 -0.245145 -13.9612 -2.0023 2.42192e-09 -4.85493e-10 -7.4554e-10 4.19137e-09 -8.32776e-10 -1.26984e-09 2.42192e-09 -4.85494e-10 -7.45538e-10 7.73091 5.47488 0.417314 2.42192e-09 -4.85494e-10 -7.45537e-10 2.90554 0.965183 0.102902 2.42192e-09 -4.85493e-10 -7.45544e-10 10.2786 0.731801 0.0259123 2.42191e-09 -4.85493e-10 -7.45537e-10 2.22167 -0.733487 -0.20892 -1.09569e-13 -1.54424e-12 -1.37113e-13 -24.1422 20.51 -50.1516 22.6469 -16.7607 -45.5755 0.769596 -24.0994 3.60428 -2.07951e-10 4.5934e-10 9.61464e-10 -3.77773e-10 8.01288e-10 1.66541e-09 -2.07952e-10 4.59349e-10 9.61462e-10 -7.73091 5.47488 -0.417314 -2.07948e-10 4.59348e-10 9.61462e-10 -2.90554 0.965183 -0.102902 -2.07958e-10 4.5935e-10 9.61462e-10 -10.2786 0.731801 -0.0259123 -2.07946e-10 4.5935e-10 9.61455e-10 -2.22167 -0.733487 0.20892 -2.03217e-16 0.0 -3.88251e-19 -40.1462 -53.3066 -31.9292 -3.01981 76.6292 4.53743 -3.70928 -22.1335 -9.45036 2.03217e-16 0.0 3.88251e-19 35.9387 -52.8036 43.6546 1.01434 61.3404 -2.07778 6.35174 -7.25547 25.7014
-21.1925 67.6201 1.41071 131.717 77.1158 143.181 -13.2836 59.9633 8.19766 3.19265 -13.0172 1.71171 -9.37087 -16.2797 -5.58344 7.8272 -1.28075 -5.85241 -0.0 0.0 0.0 -0.0 0.0 0.0 -2.48109e-13 -2.42041e-12 -1.0963e-13 47.3457 14.7628 48.106 -23.035 -17.3949 46.6873 -0.241293 -13.8526 -1.9861 2.39648e-09 -5.15056e-10 -9.1885e-10 4.14806e-09 -8.83851e-10 -1.57022e-09 2.39649e-09 -5.15056e-10 -9.1885e-10 7.73091 5.47488 0.417314 2.39648e-09 -5.15057e-10 -9.18846e-10 2.90554 0.965183 0.102902 2.39649e-09 -5.15056e-10 -9.18853e-10 10.2786 0.731801 0.0259123 2.39647e-09 -5.15054e-10 -9.18846e-10 2.22167 -0.733487 -0.20892 -2.48074e-13 -2.42039e-12 -1.09779e-13 -24.3262 20.6568 -50.0704 22.681 -16.8152 -45.6722 0.774476 -24.1696 3.61615 -4.14423e-10 2.36767e-10 4.14922e-10 -7.22377e-10 4.12458e-10 7.16033e-10 -4.14425e-10 2.36776e-10 4.14919e-10 -7.73091 5.47488 -0.417314 -4.1442e-10 2.36776e-10 4.14919e-10 -2.90554 0.965183 -0.102902 -4.14431e-10 2.36777e-10 4.14918e-10 -10.2786 0.731801 -0.0259123 -4.14418e-10 2.36777e-10 4.1491e-10 -2.22167 -0.733487 0.20892 -2.03217e-16 0.0 -3.88251e-19 -40.0888 -53.6023 -32.0214 -3.0659 76.7748 4.57937 -3.73863 -22.2735 -9.46402 2.03217e-16 0.0 3.88251e-19 35.8629 -52.632 43.5382 0.98565 60.8411 -2.03221 6.18529 -7.00541 25.5867
-21.297 67.6214 1.83429 130.622 77.0237 142.205 -12.9232 59.74 7.79082 3.18396 -12.9497 1.66194 -9.34703 -16.4268 -5.55114 7.54167 -0.444184 -5.82688 -0.0 0.0 0.0 -0.0 0.0 0.0 -2.56639e-13 -2.28676e-12 -7.4288e-14 47.3769 14.8031 48.0586 -23.0627 -17.4413 46.7676 -0.240406 -13.827 -1.98228 1.64653e-09 -3.60344e-10 -7.51246e-10 2.85073e-09 -6.18223e-10 -1.28644e-09 1.64654e-09 -3.60343e-10 -7.51247e-10 7.73091 5.47488 0.417314 1.64653e-09 -3.60344e-10 -7.51243e-10 2.90554 0.965183 0.102902 1.64654e-09 -3.60343e-10 -7.51248e-10 10.2786 0.731801 0.0259123 1.64653e-09 -3.60341e-10 -7.51241e-10 2.22167 -0.733487 -0.20892 -2.56624e-13 -2.28673e-12 -7.44763e-14 -24.5507 20.7932 -49.9884 22.7063 -16.856 -45.7442 0.775478 -24.1838 3.61857 -2.57192e-10 3.97217e-11 -9.26734e-12 -4.43012e-10 6.98603e-11 -1.65217e-11 -2.57195e-10 3.97313e-11 -9.269e-12 -7.73091 5.47488 -0.417314 -2.57191e-10 3.97307e-11 -9.26959e-12 -2.90554 0.965183 -0.102902 -2.57201e-10 3.97315e-11 -9.27147e-12 -10.2786 0.731801 -0.0259123 -2.57188e-10 3.97322e-11 -9.28108e-12 -2.22167 -0.733487 0.20892 -2.03217e-16 0.0 -3.88251e-19 -40.117 -53.8795 -32.1532 -3.10618 76.901 4.61736 -3.77715 -22.3364 -9.52096 2.03217e-16 0.0 3.88251e-19 35.7231 -52.5142 43.3705 0.9587 60.357 -1.98972 6.03107 -6.7865 25.4598
-21.3992 67.6241 2.25858 129.775 76.9413 141.411 -12.4798 59.531 7.29706 3.15325 -12.8927 1.59894 -9.32173 -16.5645 -5.52294 7.18709 0.450608 -5.81103 -0.0 0.0 0.0 -0.0 0.0 0.0 -1.93053e-13 -1.59769e-12 -3.62533e-14 47.3943 14.8367 48.0139 -23.0971 -17.499 46.8677 -0.240966 -13.8423 -1.98458 4.28911e-10 -9.11775e-11 -3.72347e-10 7.43885e-10 -1.55924e-10 -6.40684e-10 4.28913e-10 -9.11757e-11 -3.7235e-10 7.73091 5.47488 0.417314 4.28911e-10 -9.11762e-11 -3.72345e-10 2.90554 0.965183 0.102902 4.28915e-10 -9.11754e-11 -3.72348e-10 10.2786 0.731801 0.0259123 4.28906e-10 -9.11733e-11 -3.7234e-10 2.22167 -0.733487 -0.20892 -1.93097e-13 -1.59765e-12 -3.65049e-14 -24.8107 20.9254 -49.8959 22.7281 -16.891 -45.8059 0.774153 -24.1647 3.61534 1.45479e-10 -1.72956e-10 -4.22597e-10 2.58948e-10 -2.98719e-10 -7.26803e-10 1.45473e-10 -1.72947e-10 -4.22595e-10 -7.73091 5.47488 -0.417314 1.45478e-10 -1.72948e-10 -4.22597e-10 -2.90554 0.965183 -0.102902 1.45469e-10 -1.72947e-10 -4.226e-10 -10.2786 0.731801 -0.0259123 1.4548e-10 -1.72945e-10 -4.2261e-10 -2.22167 -0.733487 0.20892 -2.03217e-16 0.0 -3.88251e-19 -40.2137 -54.1557 -32.3198 -3.1445 77.0201 4.6545 -3.81645 -22.3495 -9.59523 2.03217e-16 0.0 3.88251e-19 35.5633 -52.4303 43.1982 0.933431 59.8937 -1.9503 5.88696 -6.59445 25.3201
